<svg xmlns="http://www.w3.org/2000/svg" width="1440" height="1024" viewBox="0 0 1440 1024" role="img" aria-labelledby="title desc">
  <title id="title">NetQuest dashboard key screen</title><desc id="desc">A high fidelity dark-mode dashboard concept prioritizing continuing the learning journey.</desc>
  <defs><linearGradient id="bg" x2="1" y2="1"><stop stop-color="#07111f"/><stop offset="1" stop-color="#0b1830"/></linearGradient><linearGradient id="cta" x2="1"><stop stop-color="#27d3ff"/><stop offset="1" stop-color="#5b8cff"/></linearGradient><style>.ui{font-family:Inter,Arial,sans-serif}.mono{font-family:'IBM Plex Mono',Consolas,monospace}.muted{fill:#8ea4bd}.card{fill:#0f2036;stroke:#29415b}.nav{fill:#b9cadd;font-size:14px}.small{font-size:12px}</style></defs>
  <rect width="1440" height="1024" fill="url(#bg)"/><rect width="248" height="1024" fill="#091626"/><line x1="248" x2="248" y2="1024" stroke="#263d55"/>
  <g class="ui">
    <g transform="translate(30 34)"><circle cx="20" cy="20" r="19" fill="#102c43" stroke="#27d3ff"/><path d="M6 20h28M20 6c6 7 6 21 0 28M20 6c-6 7-6 21 0 28" fill="none" stroke="#27d3ff"/><text x="52" y="28" fill="#f4f9ff" font-size="25" font-weight="800">NetQuest</text></g>
    <text x="30" y="116" class="muted small" font-weight="700" letter-spacing="1.4">ACADEMY</text>
    <g class="nav"><rect x="18" y="136" width="212" height="48" rx="10" fill="#123149"/><circle cx="43" cy="160" r="7" fill="#27d3ff"/><text x="66" y="165" fill="#f4f9ff" font-weight="700">Home</text><text x="42" y="220">⌁</text><text x="66" y="220">Learning paths</text><text x="42" y="274">◇</text><text x="66" y="274">Achievements</text><text x="42" y="328">▥</text><text x="66" y="328">Statistics</text></g>
    <line x1="30" x2="218" y1="370" y2="370" stroke="#263d55"/><text x="30" y="410" class="muted small" font-weight="700" letter-spacing="1.4">MISSIONS</text><g class="nav"><text x="42" y="452">01</text><text x="76" y="452">Port numbers</text><text x="42" y="500">02</text><text x="76" y="500">Protocols</text><text x="42" y="548">03</text><text x="76" y="548">Subnetting</text><text x="42" y="596">04</text><text x="76" y="596">View all missions</text></g>
    <g transform="translate(18 874)"><rect width="212" height="126" rx="14" fill="#0f2036" stroke="#29415b"/><circle cx="34" cy="35" r="19" fill="#25445f"/><text x="64" y="32" fill="#f4f9ff" font-size="14" font-weight="700">Guest User</text><text x="64" y="51" class="muted small">Level 1 · 0 XP</text><rect x="18" y="75" width="176" height="34" rx="8" fill="none" stroke="#3e607d"/><text x="106" y="97" text-anchor="middle" fill="#b8eefe" class="small" font-weight="700">Sign in to save</text></g>

    <g transform="translate(288 32)"><text x="0" y="20" class="muted small">SUNDAY, JULY 26</text><text x="0" y="59" fill="#f4f9ff" font-size="30" font-weight="800">Ready for your next hop?</text><g transform="translate(936 0)"><circle cx="22" cy="22" r="20" fill="#132941"/><text x="22" y="27" text-anchor="middle" fill="#d6e5f3">☼</text><circle cx="78" cy="22" r="20" fill="#173048"/><text x="78" y="27" text-anchor="middle" fill="#f4f9ff">G</text></g></g>

    <g transform="translate(288 124)"><rect width="1112" height="256" rx="18" fill="#0f2036" stroke="#31516d"/><path d="M700 0h412v256H568z" fill="#0c1b2e" opacity=".78"/><path d="M710 196h108l68-76h96l62 44h104" fill="none" stroke="#245a73" stroke-width="3"/><circle cx="710" cy="196" r="10" fill="#0c1b2e" stroke="#27d3ff" stroke-width="2"/><circle cx="886" cy="120" r="10" fill="#0c1b2e" stroke="#27d3ff" stroke-width="2"/><circle cx="982" cy="120" r="10" fill="#0c1b2e" stroke="#39d98a" stroke-width="2"/><circle cx="1044" cy="164" r="10" fill="#0c1b2e" stroke="#27d3ff" stroke-width="2"/>
      <text x="32" y="38" fill="#71e4ff" class="mono small">CONTINUE YOUR JOURNEY</text><text x="32" y="82" fill="#f4f9ff" font-size="27" font-weight="800">Match the services behind the ports</text><text x="32" y="112" class="muted" font-size="15">Port Number Game · Time Attack · Easy</text><rect x="32" y="139" width="500" height="8" rx="4" fill="#20364d"/><rect x="32" y="139" width="310" height="8" rx="4" fill="#39d98a"/><text x="32" y="172" class="mono muted small">6 OF 10 QUESTIONS · BEST 1,240</text><rect x="32" y="194" width="180" height="44" rx="10" fill="url(#cta)"/><text x="122" y="221" text-anchor="middle" fill="#04131e" font-size="14" font-weight="800">Continue mission  →</text>
    </g>

    <g transform="translate(288 404)"><rect class="card" width="356" height="154" rx="16"/><text x="24" y="32" class="muted small" font-weight="700">DAILY SIGNAL</text><text x="24" y="72" fill="#f4f9ff" font-size="23" font-weight="800">2 of 3 activities</text><rect x="24" y="94" width="308" height="8" rx="4" fill="#20364d"/><rect x="24" y="94" width="205" height="8" rx="4" fill="#39d98a"/><text x="24" y="128" class="muted small">One more activity earns +50 XP</text></g>
    <g transform="translate(660 404)"><rect class="card" width="356" height="154" rx="16"/><text x="24" y="32" class="muted small" font-weight="700">LEARNING PROGRESS</text><text x="24" y="72" fill="#f4f9ff" font-size="23" font-weight="800">Network Novice</text><text x="24" y="98" class="mono" fill="#71e4ff" font-size="13">LEVEL 1 · 0 / 500 XP</text><text x="24" y="128" class="muted small">Next: Connection Apprentice</text></g>
    <g transform="translate(1032 404)"><rect class="card" width="368" height="154" rx="16"/><text x="24" y="32" class="muted small" font-weight="700">DAY STREAK</text><text x="24" y="79" fill="#ffbd4a" class="mono" font-size="34" font-weight="700">03 DAYS</text><text x="24" y="112" class="muted small">Study today to keep the route alive</text></g>

    <text x="288" y="608" fill="#f4f9ff" font-size="21" font-weight="800">Recommended missions</text><text x="1374" y="608" text-anchor="end" fill="#71e4ff" font-size="13" font-weight="700">View all →</text>
    <g transform="translate(288 632)">
      <g><rect class="card" width="356" height="238" rx="16"/><rect x="20" y="20" width="48" height="48" rx="12" fill="#14364a"/><text x="44" y="51" text-anchor="middle" fill="#27d3ff" class="mono">:80</text><rect x="246" y="24" width="86" height="24" rx="12" fill="#143c35"/><text x="289" y="40" text-anchor="middle" fill="#8bf0bf" class="small">BEGINNER</text><text x="20" y="98" fill="#f4f9ff" font-size="19" font-weight="800">Port Number Game</text><text x="20" y="126" class="muted" font-size="13">Match ports and services before</text><text x="20" y="146" class="muted" font-size="13">the packet timer expires.</text><text x="20" y="181" class="mono muted small">BEST 1,240 · 3–5 MIN</text><rect x="20" y="198" width="316" height="1" fill="#29415b"/><text x="20" y="225" fill="#71e4ff" font-size="13" font-weight="700">Start mission →</text></g>
      <g transform="translate(372)"><rect class="card" width="356" height="238" rx="16"/><rect x="20" y="20" width="48" height="48" rx="12" fill="#14364a"/><text x="44" y="51" text-anchor="middle" fill="#27d3ff">⌁</text><rect x="224" y="24" width="108" height="24" rx="12" fill="#2f2d1c"/><text x="278" y="40" text-anchor="middle" fill="#ffd27f" class="small">INTERMEDIATE</text><text x="20" y="98" fill="#f4f9ff" font-size="19" font-weight="800">Protocol Matcher</text><text x="20" y="126" class="muted" font-size="13">Connect each protocol to the job</text><text x="20" y="146" class="muted" font-size="13">it performs on the network.</text><text x="20" y="181" class="mono muted small">BEST 860 · 4–6 MIN</text><rect x="20" y="198" width="316" height="1" fill="#29415b"/><text x="20" y="225" fill="#71e4ff" font-size="13" font-weight="700">Start mission →</text></g>
      <g transform="translate(744)"><rect class="card" width="368" height="238" rx="16"/><rect x="20" y="20" width="48" height="48" rx="12" fill="#14364a"/><text x="44" y="51" text-anchor="middle" fill="#27d3ff" class="mono">/24</text><rect x="236" y="24" width="108" height="24" rx="12" fill="#2f2d1c"/><text x="290" y="40" text-anchor="middle" fill="#ffd27f" class="small">INTERMEDIATE</text><text x="20" y="98" fill="#f4f9ff" font-size="19" font-weight="800">Subnetting Challenge</text><text x="20" y="126" class="muted" font-size="13">Calculate the usable range and</text><text x="20" y="146" class="muted" font-size="13">broadcast address for each subnet.</text><text x="20" y="181" class="mono muted small">NEW · 5–8 MIN</text><rect x="20" y="198" width="328" height="1" fill="#29415b"/><text x="20" y="225" fill="#71e4ff" font-size="13" font-weight="700">Start mission →</text></g>
    </g>
    <text x="288" y="916" fill="#f4f9ff" font-size="21" font-weight="800">All missions</text><text x="1374" y="916" text-anchor="end" class="muted" font-size="13">8 available · Filter by skill</text>
    <text x="288" y="985" class="muted small">Directional high-fidelity concept · desktop 1440 · not production UI</text>
  </g>
</svg>
